#!OML:ASF X:\für Bonn\!DataBase\2005_08_10_Bjorn_Final\c3d\bjorn.ASF
:FULLY-SPECIFIED
:DEGREES
108
root -6.69623 18.9336 -0.733469 704.789 80.0368 -20.1575
lowerback -0.77849 0.390479 1.88026
upperback 10.6704 0.522236 2.82264
thorax 11.8672 0.421584 2.09502
lowerneck 6.26641 0.6412 -0.497993
upperneck 13.2408 2.17199 -8.46329
head 3.32897 1.01638 -2.69608
rclavicle 1.41137e-014 7.15625e-015
rhumerus -23.8938 -15.2692 -78.3235
rradius 40.5904
rwrist 1.82533
rhand -10.5526 14.8099
rfingers 7.12502
rthumb 15.4514 -14.5926
lclavicle 1.41137e-014 7.15625e-015
lhumerus -27.9844 -8.28339 63.8068
lradius 40.8591
lwrist -19.998
lhand -31.986 -14.5876
lfingers 7.12502
lthumb -5.23522 15.3277
rfemur 0.3743 2.96145 14.7111
rtibia 30.6099
rfoot -11.4607 19.3189
rtoes -8.49279
lfemur -31.956 9.62051 -11.8271
ltibia 36.4197
lfoot -2.37537 -5.09124
ltoes -6.46663
109
root -6.60738 18.9538 -0.768075 704.462 80.1445 -20.5243
lowerback -0.72932 0.503587 1.67525
upperback 10.6208 0.702918 2.66093
thorax 11.7727 0.497507 2.04984
lowerneck 6.35539 0.505578 -0.608204
upperneck 13.2426 1.93204 -7.98364
head 3.28909 0.90551 -2.51157
rclavicle -7.95139e-016 -1.51076e-014
rhumerus -24.1262 -15.8314 -78.253
rradius 40.1695
rwrist 1.95489
rhand -10.7105 14.8777
rfingers 7.12502
rthumb 15.2993 -14.5364
lclavicle -7.95139e-016 -1.51076e-014
lhumerus -27.6693 -8.02696 63.3883
lradius 41.0006
lwrist -20.0578
lhand -32.189 -14.5174
lfingers 7.12502
lthumb -5.43118 15.393
rfemur -0.0734772 2.9838 14.5986
rtibia 31.6312
rfoot -10.5308 19.1057
rtoes -9.84603
lfemur -31.6966 9.57508 -11.9554
ltibia 36.3572
lfoot -2.5886 -5.23277
ltoes -6.35947
110
root -6.51911 18.9734 -0.80229 704.043 80.2828 -20.9535
lowerback -0.649664 0.590118 1.47841
upperback 10.56 0.849943 2.46862
thorax 11.6476 0.559952 1.96202
lowerneck 6.499 0.37716 -0.601719
upperneck 13.2359 1.7085 -7.54669
head 3.24135 0.808431 -2.36373
rclavicle 9.14409e-015 0
rhumerus -24.4197 -16.3907 -78.2415
rradius 39.8108
rwrist 2.1207
rhand -10.8438 14.9773
rfingers 7.12502
rthumb 15.171 -14.4465
lclavicle 9.14409e-015 0
lhumerus -27.3826 -7.7447 62.8934
lradius 41.1862
lwrist -20.0762
lhand -32.3922 -14.4543
lfingers 7.12502
lthumb -5.62738 15.451
rfemur -0.542346 2.99432 14.4944
rtibia 32.754
rfoot -9.66517 18.8476
rtoes -11.6435
lfemur -31.3987 9.46664 -12.0636
ltibia 36.2839
lfoot -2.81232 -5.38816
ltoes -6.25116
111
root -6.43079 18.9925 -0.835165 703.655 80.4005 -21.3483
lowerback -0.595462 0.677871 1.25319
upperback 10.4955 0.997728 2.28775
thorax 11.5339 0.61932 1.90312
lowerneck 6.63535 0.245932 -0.59375
upperneck 13.2726 1.48915 -7.12378
head 3.21213 0.712607 -2.22235
rclavicle 2.38542e-015 -4.6118e-014
rhumerus -24.7512 -16.9481 -78.2028
rradius 39.469
rwrist 2.3265
rhand -10.9166 15.1107
rfingers 7.12502
rthumb 15.1009 -14.3184
lclavicle 2.38542e-015 -4.6118e-014
lhumerus -27.1043 -7.4354 62.404
lradius 41.3888
lwrist -20.0339
lhand -32.5084 -14.4928
lfingers 7.12502
lthumb -5.73958 15.4095
rfemur -1.07738 3.01495 14.395
rtibia 33.9681
rfoot -8.73462 18.5563
rtoes -13.3496
lfemur -31.0927 9.41904 -12.1754
ltibia 36.1973
lfoot -2.99961 -5.54704
ltoes -5.86007
112
root -6.34393 19.0114 -0.867608 703.148 80.5591 -21.8432
lowerback -0.523778 0.749042 1.04329
upperback 10.4213 1.1228 2.09535
thorax 11.3996 0.670143 1.82008
lowerneck 6.7933 0.116571 -0.565119
upperneck 13.3165 1.27535 -6.7076
head 3.18348 0.620901 -2.08758
rclavicle -4.17448e-015 2.22639e-014
rhumerus -25.1308 -17.408 -78.1968
rradius 39.205
rwrist 2.41136
rhand -10.9934 15.1843
rfingers 7.12502
rthumb 15.0269 -14.2504
lclavicle -4.17448e-015 2.22639e-014
lhumerus -26.8186 -7.16174 61.8896
lradius 41.6195
lwrist -19.9296
lhand -32.5398 -14.5691
lfingers 7.12502
lthumb -5.76994 15.3324
rfemur -1.63892 2.96514 14.2976
rtibia 35.2671
rfoot -7.77926 18.2364
rtoes -14.9248
lfemur -30.7616 9.33276 -12.2867
ltibia 36.0821
lfoot -3.17322 -5.72288
ltoes -5.70563
113
root -6.25557 19.032 -0.899625 702.641 80.6925 -22.3068
lowerback -0.473979 0.808634 0.793821
upperback 10.3686 1.23065 1.95119
thorax 11.303 0.706649 1.81106
lowerneck 6.837 0.0170507 -0.673999
upperneck 13.441 1.10308 -6.25798
head 3.20475 0.540917 -1.91898
rclavicle 9.64106e-015 -9.14409e-015
rhumerus -25.4844 -17.6622 -78.1348
rradius 38.9602
rwrist 2.42543
rhand -11.0952 15.2472
rfingers 7.12502
rthumb 14.9288 -14.1948
lclavicle 9.64106e-015 -9.14409e-015
lhumerus -26.5789 -6.79525 61.4389
lradius 41.8886
lwrist -19.8299
lhand -32.5757 -14.7374
lfingers 7.12502
lthumb -5.80453 15.163
rfemur -2.23998 2.94526 14.2099
rtibia 36.6477
rfoot -6.77569 17.8484
rtoes -15.6201
lfemur -30.3622 9.26706 -12.3894
ltibia 35.9372
lfoot -3.37344 -5.88054
ltoes -5.59115
114
root -6.16697 19.0531 -0.930267 701.963 80.8225 -22.9177
lowerback -0.430023 0.854729 0.557939
upperback 10.335 1.31827 1.82723
thorax 11.2323 0.734066 1.8152
lowerneck 6.72971 -0.0721941 -0.784183
upperneck 13.6674 0.962678 -5.8782
head 3.29211 0.471187 -1.77613
rclavicle -2.48481e-015 1.05356e-014
rhumerus -25.8242 -17.7749 -78.0823
rradius 38.7805
rwrist 2.32513
rhand -11.1686 15.2775
rfingers 7.12502
rthumb 14.8581 -14.1697
lclavicle -2.48481e-015 1.05356e-014
lhumerus -26.3302 -6.38522 61.0076
lradius 42.1563
lwrist -19.7527
lhand -32.6361 -14.9486
lfingers 7.12502
lthumb -5.8629 14.9503
rfemur -2.88598 2.89035 14.1485
rtibia 38.1083
rfoot -5.71655 17.4043
rtoes -16.1877
lfemur -29.9183 9.17623 -12.4547
ltibia 35.7635
lfoot -3.54073 -6.03697
ltoes -5.50542
115
root -6.07853 19.0748 -0.960823 701.448 80.9822 -23.344
lowerback -0.379571 0.900258 0.293788
upperback 10.3028 1.40685 1.70426
thorax 11.1587 0.759623 1.83615
lowerneck 6.6201 -0.170349 -0.912516
upperneck 13.8973 0.811558 -5.51574
head 3.38238 0.395818 -1.63659
rclavicle 5.96354e-016 1.68967e-014
rhumerus -26.1362 -17.8728 -78.0067
rradius 38.5672
rwrist 2.19738
rhand -11.1787 15.2635
rfingers 7.12502
rthumb 14.8484 -14.1845
lclavicle 5.96354e-016 1.68967e-014
lhumerus -26.0568 -6.05732 60.6042
lradius 42.4492
lwrist -19.5778
lhand -32.687 -15.0353
lfingers 7.12502
lthumb -5.91202 14.8622
rfemur -3.57596 2.80124 14.0427
rtibia 39.647
rfoot -4.56062 16.9247
rtoes -16.6921
lfemur -29.45 9.07095 -12.5634
ltibia 35.5734
lfoot -3.71357 -6.16925
ltoes -5.23727
116
root -5.99096 19.0954 -0.989861 700.685 81.1161 -24.0182
lowerback -0.354117 0.950708 0.0781613
upperback 10.2907 1.49733 1.6074
thorax 11.1238 0.789423 1.85988
lowerneck 6.502 -0.266463 -1.12136
upperneck 14.0887 0.650062 -5.09878
head 3.46092 0.313497 -1.4649
rclavicle -1.55301e-014 -2.94698e-014
rhumerus -26.4015 -18.0012 -77.9107
rradius 38.3745
rwrist 2.12788
rhand -11.2094 15.219
rfingers 7.12502
rthumb 14.8188 -14.2311
lclavicle -1.55301e-014 -2.94698e-014
lhumerus -25.7329 -5.70493 60.2444
lradius 42.7315
lwrist -19.3752
lhand -32.7404 -15.115
lfingers 7.12502
lthumb -5.96359 14.781
rfemur -4.32376 2.73664 13.993
rtibia 41.2563
rfoot -3.34966 16.3849
rtoes -17.0999
lfemur -28.9721 8.96994 -12.6137
ltibia 35.3707
lfoot -3.90048 -6.32425
ltoes -5.15403
117
root -5.90352 19.1142 -1.0174 699.861 81.257 -24.7328
lowerback -0.320146 0.993349 -0.152962
upperback 10.2625 1.57723 1.51084
thorax 11.0651 0.812675 1.89062
lowerneck 6.45105 -0.367894 -1.27676
upperneck 14.2828 0.486847 -4.72045
head 3.53063 0.23412 -1.31578
rclavicle 1.73874e-014 -1.43249e-014
rhumerus -26.6707 -18.0927 -77.8419
rradius 38.1242
rwrist 2.05483
rhand -11.2252 15.1755
rfingers 7.12502
rthumb 14.8036 -14.2757
lclavicle 1.73874e-014 -1.43249e-014
lhumerus -25.4384 -5.39194 59.8808
lradius 43.0199
lwrist -19.0988
lhand -32.757 -15.1598
lfingers 7.12502
lthumb -5.97964 14.7359
rfemur -5.081 2.61367 13.9471
rtibia 42.9227
rfoot -2.15719 15.8763
rtoes -17.6089
lfemur -28.4733 8.85734 -12.6599
ltibia 35.1662
lfoot -4.07477 -6.44018
ltoes -5.07362
118
root -5.81678 19.1321 -1.04321 699.13 81.3919 -25.3209
lowerback -0.271998 1.03623 -0.412554
upperback 10.2487 1.66003 1.41508
thorax 11.0133 0.835198 1.93843
lowerneck 6.43126 -0.457232 -1.46897
upperneck 14.4148 0.328697 -4.31313
head 3.57399 0.157399 -1.15016
rclavicle -2.02512e-014 -4.32357e-015
rhumerus -26.8812 -18.1636 -77.7801
rradius 37.8614
rwrist 1.99841
rhand -11.2283 15.1249
rfingers 7.12502
rthumb 14.8006 -14.3266
lclavicle -2.02512e-014 -4.32357e-015
lhumerus -25.1258 -5.04443 59.528
lradius 43.3018
lwrist -18.8209
lhand -32.8066 -15.1748
lfingers 7.12502
lthumb -6.02745 14.7195
rfemur -5.84383 2.52429 13.8894
rtibia 44.6302
rfoot -0.937365 15.347
rtoes -17.9101
lfemur -27.9206 8.7578 -12.7184
ltibia 34.9411
lfoot -4.2318 -6.55779
ltoes -4.99597
119
root -5.73149 19.151 -1.06851 698.224 81.5289 -26.0835
lowerback -0.231127 1.06406 -0.654307
upperback 10.2428 1.72104 1.3261
thorax 10.9762 0.848519 1.982
lowerneck 6.34264 -0.529086 -1.65889
upperneck 14.6099 0.199837 -3.91053
head 3.65457 0.0938825 -0.987496
rclavicle -4.77083e-015 -6.65929e-015
rhumerus -27.0251 -18.2991 -77.7386
rradius 37.5353
rwrist 2.00999
rhand -11.2229 15.14
rfingers 7.12502
rthumb 14.8058 -14.3111
lclavicle -4.77083e-015 -6.65929e-015
lhumerus -24.7897 -4.72171 59.172
lradius 43.5753
lwrist -18.4921
lhand -32.8843 -15.1892
lfingers 7.12502
lthumb -6.10253 14.7029
rfemur -6.64449 2.35913 13.8491
rtibia 46.3688
rfoot 0.243669 14.9017
rtoes -18.4566
lfemur -27.3658 8.63905 -12.7476
ltibia 34.6929
lfoot -4.38868 -6.69475
ltoes -5.03075
120
root -5.64787 19.171 -1.09173 697.288 81.6628 -26.8667
lowerback -0.182227 1.09869 -0.91739
upperback 10.235 1.79141 1.24775
thorax 10.9306 0.864125 2.04938
lowerneck 6.31398 -0.624964 -1.84414
upperneck 14.7299 0.0337823 -3.52761
head 3.69863 0.0134919 -0.831833
rclavicle -2.3556e-014 -1.45113e-014
rhumerus -27.1631 -18.3898 -77.6949
rradius 37.2364
rwrist 2.08172
rhand -11.2495 15.1082
rfingers 7.12502
rthumb 14.7801 -14.3447
lclavicle -2.3556e-014 -1.45113e-014
lhumerus -24.4421 -4.38736 58.8413
lradius 43.851
lwrist -18.1744
lhand -33.0001 -15.1936
lfingers 7.12502
lthumb -6.21428 14.6952
rfemur -7.47652 2.2082 13.8272
rtibia 48.1334
rfoot 1.42715 14.4117
rtoes -18.7462
lfemur -26.7852 8.52335 -12.7741
ltibia 34.4125
lfoot -4.51955 -6.79163
ltoes -5.02211
